Gallery: 
 
http://imagedomino.com/?g=737512

Studio
Girlfriends Films
Starring
Zoey Holloway, Vanilla DeVille, Lily Carter, Shyla Jennings, Hayden Winters
Genre
Lesbian, Masturbation

This is the shocking story of a young woman craving her step-motherΓÇÖs attention! Soft caresses and tender kisses are always how they begin, but it quickly escalates to finger fucking and scissoring. Lily Carter fulfills her need to be with an older woman when she has a passionate encounter with Zoey Holloway in scene four. This is a great scene with strap-on anal action!

Duration                         : 59mn 21s
Bit rate                         : 1 510 Kbps
Width                            : 624 pixels
Height                           : 352 pixels
Display aspect ratio             : 16:9
Frame rate                       : 29.970 fps
Color space                      : YUV
Chroma subsampling               : 4:2:0
Bit depth                        : 8 bits
Scan type                        : Progressive
Compression mode                 : Lossy
Bits/(Pixel*Frame)               : 0.229
Stream size                      : 641 MiB (92%)

Duration                         : 1h 8mn
Bit rate                         : 1 288 Kbps
Width                            : 624 pixels
Height                           : 352 pixels
Display aspect ratio             : 16:9
Frame rate                       : 29.970 fps
Color space                      : YUV
Chroma subsampling               : 4:2:0
Bit depth                        : 8 bits
Scan type                        : Progressive
Compression mode                 : Lossy
Bits/(Pixel*Frame)               : 0.196
Stream size                      : 632 MiB (90%)

Duration                         : 1h 1mn
Bit rate                         : 1 432 Kbps
Width                            : 624 pixels
Height                           : 352 pixels
Display aspect ratio             : 16:9
Frame rate                       : 29.970 fps
Color space                      : YUV
Chroma subsampling               : 4:2:0
Bit depth                        : 8 bits
Scan type                        : Progressive
Compression mode                 : Lossy
Bits/(Pixel*Frame)               : 0.217
Stream size                      : 630 MiB (91%)